<svg xmlns="http://www.w3.org/2000/svg" xmlns:xlink="http://www.w3.org/1999/xlink" width="220" zoomAndPan="magnify" viewBox="0 0 165 36.000001" height="48" preserveAspectRatio="xMidYMid meet" version="1.0"><path fill="#081e4f" d="M 19.417969 26.375 C 19.261719 26.375 19.113281 26.3125 19 26.203125 L 10.742188 17.933594 C 10.632812 17.820312 10.570312 17.671875 10.570312 17.511719 C 10.570312 17.355469 10.632812 17.203125 10.742188 17.09375 L 13.640625 14.191406 L 13.640625 15.203125 L 11.335938 17.511719 L 19.417969 25.609375 L 24.851562 20.171875 L 25.859375 20.171875 L 19.839844 26.203125 C 19.726562 26.3125 19.578125 26.375 19.417969 26.375 Z M 24.851562 14.855469 L 19.421875 9.414062 L 19.046875 9.789062 L 19.046875 8.78125 C 19.152344 8.699219 19.285156 8.652344 19.421875 8.652344 C 19.578125 8.652344 19.726562 8.710938 19.839844 8.824219 L 25.859375 14.855469 Z M 24.851562 14.855469 " fill-opacity="1" fill-rule="nonzero"/><path fill="#0788fd" d="M 18.230469 10.113281 L 18.230469 15.933594 L 17.035156 15.933594 C 16.824219 15.933594 16.648438 16.105469 16.648438 16.320312 L 16.648438 21.769531 L 16.21875 21.339844 L 15.476562 20.59375 L 15.476562 11.234375 L 15.566406 11.195312 L 17.800781 10.289062 Z M 18.230469 10.113281 " fill-opacity="1" fill-rule="nonzero"/><path fill="#0788fd" d="M 19.933594 16.628906 L 19.933594 24.03125 L 19.5 24.464844 L 19.417969 24.542969 L 17.425781 22.546875 L 17.425781 16.628906 Z M 19.933594 16.628906 " fill-opacity="1" fill-rule="nonzero"/><path fill="#0788fd" d="M 21.699219 14.308594 L 21.699219 22.261719 L 19.933594 24.03125 L 19.738281 24.226562 L 19.738281 13.625 L 20.113281 13.753906 Z M 21.699219 14.308594 " fill-opacity="1" fill-rule="nonzero"/><path fill="#43afff" d="M 21.699219 15.207031 L 21.699219 16.238281 L 19.738281 16.960938 L 19.738281 15.933594 Z M 21.699219 15.207031 " fill-opacity="1" fill-rule="nonzero"/><path fill="#43afff" d="M 21.699219 14.667969 L 21.699219 14.96875 L 19.738281 15.691406 L 19.738281 15.390625 Z M 21.699219 14.667969 " fill-opacity="1" fill-rule="nonzero"/><path fill="#43afff" d="M 17.859375 15.519531 L 17.859375 15.933594 L 17.035156 15.933594 C 16.824219 15.933594 16.648438 16.109375 16.648438 16.320312 L 16.648438 16.324219 L 15.476562 15.890625 L 15.476562 14.640625 Z M 17.859375 15.519531 " fill-opacity="1" fill-rule="nonzero"/><path fill="#43afff" d="M 15.476562 13.980469 L 15.476562 14.347656 L 17.859375 15.226562 L 17.859375 14.859375 Z M 15.476562 13.980469 " fill-opacity="1" fill-rule="nonzero"/><path fill="#081e4f" d="M 22.84375 13.558594 L 22.84375 21.113281 L 22.230469 21.726562 L 22.230469 13.777344 L 20.109375 13.039062 L 20.109375 23.851562 L 19.933594 24.03125 L 19.5 24.464844 L 19.5 16.09375 L 16.832031 16.09375 L 16.832031 21.953125 L 16.648438 21.773438 L 16.21875 21.339844 L 16.21875 15.71875 C 16.21875 15.589844 16.324219 15.480469 16.457031 15.480469 L 17.800781 15.480469 L 17.800781 9.460938 L 16.957031 9.804688 L 14.886719 10.648438 L 14.886719 20.003906 L 14.277344 19.390625 L 14.277344 10.441406 C 14.277344 10.316406 14.351562 10.203125 14.46875 10.15625 L 17.992188 8.722656 C 18.011719 8.714844 18.035156 8.707031 18.054688 8.703125 C 18.074219 8.703125 18.089844 8.699219 18.109375 8.699219 C 18.253906 8.699219 18.371094 8.796875 18.414062 8.949219 L 18.414062 15.480469 L 19.5 15.480469 L 19.5 12.554688 C 19.546875 12.367188 19.691406 12.300781 19.804688 12.300781 C 19.839844 12.300781 19.875 12.304688 19.90625 12.316406 L 21.96875 13.035156 L 22.640625 13.269531 C 22.761719 13.3125 22.84375 13.425781 22.84375 13.558594 Z M 22.84375 13.558594 " fill-opacity="1" fill-rule="nonzero"/><path fill="#43afff" d="M 17.425781 18.0625 L 17.425781 19.113281 L 19.421875 19.847656 L 19.421875 18.800781 Z M 17.425781 18.0625 " fill-opacity="1" fill-rule="nonzero"/><path fill="#43afff" d="M 17.425781 17.515625 L 17.425781 17.820312 L 19.421875 18.554688 L 19.421875 18.25 Z M 17.425781 17.515625 " fill-opacity="1" fill-rule="nonzero"/><path fill="#081e4f" d="M 32.40625 11.289062 L 32.40625 18.769531 L 30.910156 18.769531 L 30.910156 11.289062 Z M 32.40625 11.289062 " fill-opacity="1" fill-rule="nonzero"/><path fill="#081e4f" d="M 38.90625 11.289062 L 38.90625 18.769531 L 37.453125 18.769531 L 35.109375 14.089844 L 35.109375 18.769531 L 33.683594 18.769531 L 33.683594 11.289062 L 35.113281 11.289062 L 37.480469 16.023438 L 37.480469 11.289062 Z M 38.90625 11.289062 " fill-opacity="1" fill-rule="nonzero"/><path fill="#081e4f" d="M 43.277344 16.800781 C 43.277344 16.667969 43.265625 16.546875 43.242188 16.4375 C 43.21875 16.328125 43.167969 16.226562 43.089844 16.132812 C 43.011719 16.042969 42.902344 15.949219 42.753906 15.855469 C 42.609375 15.765625 42.421875 15.667969 42.1875 15.570312 C 41.910156 15.453125 41.644531 15.328125 41.382812 15.195312 C 41.125 15.0625 40.886719 14.910156 40.679688 14.734375 C 40.472656 14.5625 40.304688 14.355469 40.183594 14.117188 C 40.0625 13.878906 40.003906 13.597656 40.003906 13.277344 C 40.003906 12.960938 40.0625 12.675781 40.175781 12.417969 C 40.289062 12.160156 40.453125 11.941406 40.664062 11.757812 C 40.875 11.574219 41.125 11.433594 41.410156 11.332031 C 41.695312 11.234375 42.015625 11.183594 42.367188 11.183594 C 42.847656 11.183594 43.261719 11.285156 43.613281 11.484375 C 43.964844 11.679688 44.234375 11.953125 44.429688 12.300781 C 44.621094 12.644531 44.71875 13.042969 44.71875 13.492188 L 43.21875 13.492188 C 43.21875 13.277344 43.1875 13.089844 43.128906 12.929688 C 43.070312 12.765625 42.972656 12.640625 42.84375 12.546875 C 42.714844 12.453125 42.546875 12.40625 42.339844 12.40625 C 42.148438 12.40625 41.992188 12.445312 41.867188 12.523438 C 41.742188 12.601562 41.648438 12.703125 41.589844 12.835938 C 41.53125 12.96875 41.5 13.117188 41.5 13.28125 C 41.5 13.40625 41.53125 13.515625 41.589844 13.613281 C 41.648438 13.710938 41.734375 13.796875 41.839844 13.875 C 41.945312 13.953125 42.070312 14.027344 42.214844 14.097656 C 42.363281 14.171875 42.523438 14.242188 42.695312 14.308594 C 43.035156 14.441406 43.332031 14.589844 43.59375 14.75 C 43.851562 14.90625 44.070312 15.085938 44.246094 15.28125 C 44.421875 15.480469 44.550781 15.699219 44.640625 15.949219 C 44.730469 16.195312 44.773438 16.476562 44.773438 16.792969 C 44.773438 17.105469 44.71875 17.386719 44.613281 17.640625 C 44.503906 17.898438 44.347656 18.117188 44.140625 18.300781 C 43.9375 18.484375 43.691406 18.625 43.398438 18.722656 C 43.109375 18.824219 42.789062 18.871094 42.433594 18.871094 C 42.085938 18.871094 41.761719 18.824219 41.453125 18.726562 C 41.144531 18.628906 40.875 18.480469 40.640625 18.277344 C 40.40625 18.078125 40.222656 17.820312 40.089844 17.511719 C 39.953125 17.203125 39.886719 16.835938 39.886719 16.410156 L 41.390625 16.410156 C 41.390625 16.636719 41.414062 16.828125 41.457031 16.988281 C 41.503906 17.144531 41.570312 17.273438 41.664062 17.367188 C 41.753906 17.460938 41.871094 17.53125 42.003906 17.578125 C 42.140625 17.625 42.292969 17.648438 42.46875 17.648438 C 42.667969 17.648438 42.824219 17.609375 42.945312 17.535156 C 43.0625 17.457031 43.144531 17.355469 43.199219 17.230469 C 43.253906 17.109375 43.277344 16.964844 43.277344 16.800781 Z M 43.277344 16.800781 " fill-opacity="1" fill-rule="nonzero"/><path fill="#081e4f" d="M 50.621094 11.289062 L 50.621094 12.539062 L 48.761719 12.539062 L 48.761719 18.769531 L 47.269531 18.769531 L 47.269531 12.539062 L 45.445312 12.539062 L 45.445312 11.289062 Z M 50.621094 11.289062 " fill-opacity="1" fill-rule="nonzero"/><path fill="#081e4f" d="M 54.089844 11.289062 L 52.722656 11.289062 L 50.390625 18.769531 L 51.976562 18.769531 L 52.378906 17.230469 L 54.441406 17.230469 L 54.847656 18.769531 L 56.445312 18.769531 Z M 52.703125 15.980469 L 53.40625 13.289062 L 54.113281 15.980469 Z M 52.703125 15.980469 " fill-opacity="1" fill-rule="nonzero"/><path fill="#081e4f" d="M 61.296875 17.527344 L 61.296875 18.769531 L 57.152344 18.769531 L 57.152344 11.289062 L 58.65625 11.289062 L 58.65625 17.527344 Z M 61.296875 17.527344 " fill-opacity="1" fill-rule="nonzero"/><path fill="#081e4f" d="M 66.324219 17.527344 L 66.324219 18.769531 L 62.179688 18.769531 L 62.179688 11.289062 L 63.683594 11.289062 L 63.683594 17.527344 Z M 66.324219 17.527344 " fill-opacity="1" fill-rule="nonzero"/><path fill="#081e4f" d="M 74.703125 14.839844 L 74.703125 17.921875 C 74.597656 18.035156 74.441406 18.167969 74.238281 18.316406 C 74.035156 18.464844 73.769531 18.59375 73.441406 18.707031 C 73.117188 18.816406 72.71875 18.875 72.25 18.875 C 71.835938 18.875 71.460938 18.808594 71.125 18.675781 C 70.785156 18.546875 70.496094 18.347656 70.257812 18.082031 C 70.015625 17.816406 69.832031 17.484375 69.707031 17.085938 C 69.578125 16.6875 69.515625 16.214844 69.515625 15.664062 L 69.515625 14.390625 C 69.515625 13.851562 69.574219 13.378906 69.695312 12.976562 C 69.820312 12.574219 69.996094 12.238281 70.226562 11.972656 C 70.460938 11.703125 70.738281 11.503906 71.0625 11.375 C 71.386719 11.246094 71.75 11.179688 72.15625 11.179688 C 72.71875 11.179688 73.179688 11.273438 73.539062 11.460938 C 73.902344 11.652344 74.175781 11.929688 74.359375 12.300781 C 74.546875 12.667969 74.660156 13.125 74.695312 13.660156 L 73.246094 13.660156 C 73.222656 13.347656 73.171875 13.101562 73.089844 12.921875 C 73.011719 12.742188 72.898438 12.617188 72.753906 12.539062 C 72.609375 12.460938 72.425781 12.421875 72.195312 12.421875 C 71.996094 12.421875 71.824219 12.457031 71.675781 12.527344 C 71.53125 12.597656 71.40625 12.714844 71.308594 12.871094 C 71.207031 13.027344 71.132812 13.230469 71.085938 13.476562 C 71.039062 13.722656 71.015625 14.023438 71.015625 14.378906 L 71.015625 15.664062 C 71.015625 16.019531 71.042969 16.320312 71.097656 16.570312 C 71.152344 16.820312 71.230469 17.023438 71.339844 17.179688 C 71.449219 17.335938 71.585938 17.453125 71.75 17.523438 C 71.917969 17.59375 72.113281 17.628906 72.339844 17.628906 C 72.519531 17.628906 72.667969 17.609375 72.777344 17.570312 C 72.882812 17.535156 72.972656 17.492188 73.039062 17.449219 C 73.105469 17.40625 73.160156 17.375 73.207031 17.351562 L 73.207031 15.972656 L 72.132812 15.972656 L 72.132812 14.835938 L 74.703125 14.835938 Z M 74.703125 14.839844 " fill-opacity="1" fill-rule="nonzero"/><path fill="#081e4f" d="M 79.925781 17.527344 L 79.925781 18.769531 L 75.78125 18.769531 L 75.78125 11.289062 L 77.285156 11.289062 L 77.285156 17.527344 Z M 79.925781 17.527344 " fill-opacity="1" fill-rule="nonzero"/><path fill="#081e4f" d="M 84.117188 11.289062 L 82.753906 11.289062 L 80.421875 18.769531 L 82.007812 18.769531 L 82.410156 17.230469 L 84.472656 17.230469 L 84.878906 18.769531 L 86.472656 18.769531 Z M 82.734375 15.980469 L 83.4375 13.289062 L 84.144531 15.980469 Z M 82.734375 15.980469 " fill-opacity="1" fill-rule="nonzero"/><path fill="#081e4f" d="M 90.34375 16.800781 C 90.34375 16.667969 90.332031 16.546875 90.304688 16.4375 C 90.28125 16.328125 90.230469 16.226562 90.152344 16.132812 C 90.078125 16.042969 89.964844 15.949219 89.820312 15.855469 C 89.675781 15.765625 89.488281 15.667969 89.253906 15.570312 C 88.976562 15.453125 88.707031 15.328125 88.449219 15.195312 C 88.1875 15.0625 87.953125 14.910156 87.746094 14.734375 C 87.535156 14.5625 87.371094 14.355469 87.25 14.117188 C 87.128906 13.878906 87.066406 13.597656 87.066406 13.277344 C 87.066406 12.960938 87.125 12.675781 87.238281 12.417969 C 87.355469 12.160156 87.519531 11.941406 87.730469 11.757812 C 87.941406 11.574219 88.191406 11.433594 88.476562 11.332031 C 88.761719 11.234375 89.082031 11.183594 89.433594 11.183594 C 89.914062 11.183594 90.328125 11.285156 90.675781 11.484375 C 91.027344 11.679688 91.300781 11.953125 91.492188 12.300781 C 91.6875 12.644531 91.78125 13.042969 91.78125 13.492188 L 90.285156 13.492188 C 90.285156 13.277344 90.253906 13.089844 90.195312 12.929688 C 90.132812 12.765625 90.039062 12.640625 89.910156 12.546875 C 89.78125 12.453125 89.613281 12.40625 89.40625 12.40625 C 89.214844 12.40625 89.054688 12.445312 88.933594 12.523438 C 88.808594 12.601562 88.714844 12.703125 88.65625 12.835938 C 88.59375 12.96875 88.566406 13.117188 88.566406 13.28125 C 88.566406 13.40625 88.59375 13.515625 88.65625 13.613281 C 88.714844 13.710938 88.796875 13.796875 88.902344 13.875 C 89.011719 13.953125 89.136719 14.027344 89.28125 14.097656 C 89.425781 14.171875 89.585938 14.242188 89.761719 14.308594 C 90.101562 14.441406 90.398438 14.589844 90.660156 14.75 C 90.917969 14.90625 91.136719 15.085938 91.308594 15.28125 C 91.484375 15.480469 91.617188 15.699219 91.703125 15.949219 C 91.792969 16.195312 91.839844 16.476562 91.839844 16.792969 C 91.839844 17.105469 91.785156 17.386719 91.675781 17.640625 C 91.566406 17.898438 91.414062 18.117188 91.207031 18.300781 C 91 18.484375 90.753906 18.625 90.464844 18.722656 C 90.175781 18.824219 89.855469 18.871094 89.496094 18.871094 C 89.152344 18.871094 88.824219 18.824219 88.519531 18.726562 C 88.210938 18.628906 87.9375 18.480469 87.703125 18.277344 C 87.46875 18.078125 87.285156 17.820312 87.152344 17.511719 C 87.019531 17.203125 86.953125 16.835938 86.953125 16.410156 L 88.457031 16.410156 C 88.457031 16.636719 88.480469 16.828125 88.523438 16.988281 C 88.566406 17.144531 88.636719 17.273438 88.726562 17.367188 C 88.820312 17.460938 88.933594 17.53125 89.070312 17.578125 C 89.203125 17.625 89.359375 17.648438 89.535156 17.648438 C 89.730469 17.648438 89.890625 17.609375 90.007812 17.535156 C 90.128906 17.457031 90.210938 17.355469 90.261719 17.230469 C 90.316406 17.109375 90.34375 16.964844 90.34375 16.800781 Z M 90.34375 16.800781 " fill-opacity="1" fill-rule="nonzero"/><path fill="#081e4f" d="M 96.011719 16.800781 C 96.011719 16.667969 96 16.546875 95.976562 16.4375 C 95.953125 16.328125 95.902344 16.226562 95.824219 16.132812 C 95.746094 16.042969 95.636719 15.949219 95.492188 15.855469 C 95.34375 15.765625 95.15625 15.667969 94.925781 15.570312 C 94.648438 15.453125 94.378906 15.328125 94.117188 15.195312 C 93.859375 15.0625 93.625 14.910156 93.414062 14.734375 C 93.207031 14.5625 93.042969 14.355469 92.921875 14.117188 C 92.800781 13.878906 92.738281 13.597656 92.738281 13.277344 C 92.738281 12.960938 92.796875 12.675781 92.910156 12.417969 C 93.023438 12.160156 93.1875 11.941406 93.402344 11.757812 C 93.613281 11.574219 93.859375 11.433594 94.148438 11.332031 C 94.433594 11.234375 94.75 11.183594 95.105469 11.183594 C 95.582031 11.183594 96 11.285156 96.347656 11.484375 C 96.699219 11.679688 96.96875 11.953125 97.164062 12.300781 C 97.355469 12.644531 97.453125 13.042969 97.453125 13.492188 L 95.953125 13.492188 C 95.953125 13.277344 95.925781 13.089844 95.863281 12.929688 C 95.804688 12.765625 95.710938 12.640625 95.582031 12.546875 C 95.449219 12.453125 95.28125 12.40625 95.078125 12.40625 C 94.886719 12.40625 94.726562 12.445312 94.601562 12.523438 C 94.476562 12.601562 94.386719 12.703125 94.324219 12.835938 C 94.265625 12.96875 94.234375 13.117188 94.234375 13.28125 C 94.234375 13.40625 94.265625 13.515625 94.324219 13.613281 C 94.386719 13.710938 94.46875 13.796875 94.574219 13.875 C 94.679688 13.953125 94.804688 14.027344 94.953125 14.097656 C 95.097656 14.171875 95.257812 14.242188 95.429688 14.308594 C 95.769531 14.441406 96.070312 14.589844 96.328125 14.75 C 96.589844 14.90625 96.808594 15.085938 96.980469 15.28125 C 97.15625 15.480469 97.289062 15.699219 97.375 15.949219 C 97.464844 16.195312 97.507812 16.476562 97.507812 16.792969 C 97.507812 17.105469 97.457031 17.386719 97.347656 17.640625 C 97.238281 17.898438 97.082031 18.117188 96.878906 18.300781 C 96.671875 18.484375 96.425781 18.625 96.136719 18.722656 C 95.847656 18.824219 95.523438 18.871094 95.167969 18.871094 C 94.824219 18.871094 94.496094 18.824219 94.1875 18.726562 C 93.882812 18.628906 93.609375 18.480469 93.375 18.277344 C 93.140625 18.078125 92.957031 17.820312 92.824219 17.511719 C 92.691406 17.203125 92.625 16.835938 92.625 16.410156 L 94.128906 16.410156 C 94.128906 16.636719 94.148438 16.828125 94.195312 16.988281 C 94.238281 17.144531 94.308594 17.273438 94.398438 17.367188 C 94.492188 17.460938 94.605469 17.53125 94.742188 17.578125 C 94.875 17.625 95.03125 17.648438 95.203125 17.648438 C 95.402344 17.648438 95.5625 17.609375 95.679688 17.535156 C 95.796875 17.457031 95.882812 17.355469 95.933594 17.230469 C 95.984375 17.109375 96.011719 16.964844 96.011719 16.800781 Z M 96.011719 16.800781 " fill-opacity="1" fill-rule="nonzero"/><path fill="#081e4f" d="M 33.542969 21.316406 L 33.902344 21.316406 L 34.746094 23.382812 L 34.773438 23.382812 L 35.617188 21.316406 L 35.976562 21.316406 L 35.976562 23.804688 L 35.695312 23.804688 L 35.695312 21.914062 L 35.671875 21.914062 L 34.894531 23.804688 L 34.625 23.804688 L 33.847656 21.914062 L 33.824219 21.914062 L 33.824219 23.804688 L 33.542969 23.804688 Z M 33.542969 21.316406 " fill-opacity="1" fill-rule="nonzero"/><path fill="#081e4f" d="M 38.207031 21.316406 L 38.507812 21.316406 L 38.507812 22.964844 C 38.507812 23.132812 38.46875 23.285156 38.386719 23.417969 C 38.308594 23.550781 38.195312 23.65625 38.050781 23.734375 C 37.90625 23.808594 37.738281 23.847656 37.542969 23.847656 C 37.347656 23.847656 37.179688 23.808594 37.035156 23.734375 C 36.890625 23.65625 36.777344 23.550781 36.699219 23.417969 C 36.617188 23.285156 36.578125 23.132812 36.578125 22.964844 L 36.578125 21.316406 L 36.878906 21.316406 L 36.878906 22.9375 C 36.878906 23.058594 36.90625 23.167969 36.960938 23.261719 C 37.011719 23.355469 37.089844 23.429688 37.1875 23.484375 C 37.285156 23.539062 37.40625 23.566406 37.542969 23.566406 C 37.683594 23.566406 37.800781 23.539062 37.898438 23.484375 C 38 23.429688 38.074219 23.355469 38.128906 23.261719 C 38.179688 23.167969 38.207031 23.058594 38.207031 22.9375 Z M 38.207031 21.316406 " fill-opacity="1" fill-rule="nonzero"/><path fill="#081e4f" d="M 39.109375 23.800781 L 39.109375 21.316406 L 39.410156 21.316406 L 39.410156 22.550781 L 39.4375 22.550781 L 40.554688 21.316406 L 40.945312 21.316406 L 39.902344 22.4375 L 40.945312 23.800781 L 40.582031 23.800781 L 39.71875 22.644531 L 39.410156 22.996094 L 39.410156 23.800781 Z M 39.109375 23.800781 " fill-opacity="1" fill-rule="nonzero"/><path fill="#081e4f" d="M 41.4375 23.800781 L 41.121094 23.800781 L 42.03125 21.316406 L 42.34375 21.316406 L 43.253906 23.800781 L 42.941406 23.800781 L 42.199219 21.710938 L 42.179688 21.710938 Z M 41.554688 22.832031 L 42.824219 22.832031 L 42.824219 23.097656 L 41.554688 23.097656 Z M 41.554688 22.832031 " fill-opacity="1" fill-rule="nonzero"/><path fill="#081e4f" d="M 43.644531 21.316406 L 44.003906 21.316406 L 44.847656 23.382812 L 44.875 23.382812 L 45.71875 21.316406 L 46.078125 21.316406 L 46.078125 23.804688 L 45.796875 23.804688 L 45.796875 21.914062 L 45.773438 21.914062 L 44.996094 23.804688 L 44.726562 23.804688 L 43.949219 21.914062 L 43.925781 21.914062 L 43.925781 23.804688 L 43.644531 23.804688 Z M 43.644531 21.316406 " fill-opacity="1" fill-rule="nonzero"/><path fill="#081e4f" d="M 46.679688 21.316406 L 47.035156 21.316406 L 47.882812 23.382812 L 47.910156 23.382812 L 48.753906 21.316406 L 49.113281 21.316406 L 49.113281 23.804688 L 48.832031 23.804688 L 48.832031 21.914062 L 48.808594 21.914062 L 48.03125 23.804688 L 47.761719 23.804688 L 46.984375 21.914062 L 46.960938 21.914062 L 46.960938 23.804688 L 46.679688 23.804688 Z M 46.679688 21.316406 " fill-opacity="1" fill-rule="nonzero"/><path fill="#081e4f" d="M 49.816406 23.800781 L 49.5 23.800781 L 50.410156 21.316406 L 50.722656 21.316406 L 51.632812 23.800781 L 51.320312 23.800781 L 50.578125 21.710938 L 50.558594 21.710938 Z M 49.933594 22.832031 L 51.203125 22.832031 L 51.203125 23.097656 L 49.933594 23.097656 Z M 49.933594 22.832031 " fill-opacity="1" fill-rule="nonzero"/><path fill="#081e4f" d="M 52.023438 23.800781 L 52.023438 21.316406 L 52.324219 21.316406 L 52.324219 23.535156 L 53.476562 23.535156 L 53.476562 23.800781 Z M 52.023438 23.800781 " fill-opacity="1" fill-rule="nonzero"/><path fill="#081e4f" d="M 53.898438 23.800781 L 53.898438 21.316406 L 54.199219 21.316406 L 54.199219 23.535156 L 55.355469 23.535156 L 55.355469 23.800781 Z M 53.898438 23.800781 " fill-opacity="1" fill-rule="nonzero"/><path fill="#081e4f" d="M 55.820312 21.316406 L 56.121094 21.316406 L 56.121094 23.804688 L 55.820312 23.804688 Z M 55.820312 21.316406 " fill-opacity="1" fill-rule="nonzero"/><path fill="#081e4f" d="M 56.722656 23.800781 L 56.722656 21.316406 L 57.023438 21.316406 L 57.023438 22.550781 L 57.054688 22.550781 L 58.167969 21.316406 L 58.5625 21.316406 L 57.519531 22.4375 L 58.5625 23.800781 L 58.199219 23.800781 L 57.335938 22.644531 L 57.023438 22.996094 L 57.023438 23.800781 Z M 56.722656 23.800781 " fill-opacity="1" fill-rule="nonzero"/><path fill="#081e4f" d="M 59.910156 23.800781 L 59.910156 21.316406 L 60.777344 21.316406 C 60.949219 21.316406 61.09375 21.34375 61.203125 21.40625 C 61.316406 21.464844 61.402344 21.542969 61.457031 21.644531 C 61.511719 21.746094 61.539062 21.855469 61.539062 21.976562 C 61.539062 22.082031 61.519531 22.171875 61.480469 22.242188 C 61.445312 22.3125 61.394531 22.367188 61.332031 22.40625 C 61.273438 22.445312 61.207031 22.476562 61.136719 22.496094 L 61.136719 22.519531 C 61.210938 22.527344 61.285156 22.550781 61.363281 22.601562 C 61.441406 22.648438 61.503906 22.71875 61.558594 22.808594 C 61.609375 22.898438 61.636719 23.011719 61.636719 23.140625 C 61.636719 23.265625 61.605469 23.378906 61.550781 23.476562 C 61.492188 23.578125 61.40625 23.65625 61.28125 23.714844 C 61.160156 23.773438 61 23.800781 60.804688 23.800781 Z M 60.210938 22.410156 L 60.765625 22.410156 C 60.855469 22.410156 60.9375 22.390625 61.011719 22.355469 C 61.085938 22.320312 61.144531 22.269531 61.1875 22.203125 C 61.230469 22.140625 61.253906 22.0625 61.253906 21.976562 C 61.253906 21.867188 61.214844 21.773438 61.140625 21.699219 C 61.0625 21.621094 60.941406 21.582031 60.777344 21.582031 L 60.210938 21.582031 Z M 60.210938 23.535156 L 60.804688 23.535156 C 61 23.535156 61.140625 23.496094 61.222656 23.421875 C 61.308594 23.34375 61.347656 23.25 61.347656 23.140625 C 61.347656 23.058594 61.328125 22.980469 61.285156 22.90625 C 61.242188 22.835938 61.179688 22.777344 61.101562 22.734375 C 61.023438 22.691406 60.929688 22.671875 60.820312 22.671875 L 60.210938 22.671875 Z M 60.210938 23.535156 " fill-opacity="1" fill-rule="nonzero"/><path fill="#081e4f" d="M 62.128906 21.316406 L 62.429688 21.316406 L 62.429688 23.804688 L 62.128906 23.804688 Z M 62.128906 21.316406 " fill-opacity="1" fill-rule="nonzero"/><path fill="#081e4f" d="M 62.949219 23.800781 L 62.949219 23.582031 L 64.289062 21.582031 L 62.933594 21.582031 L 62.933594 21.316406 L 64.648438 21.316406 L 64.648438 21.535156 L 63.308594 23.535156 L 64.660156 23.535156 L 64.660156 23.800781 Z M 62.949219 23.800781 " fill-opacity="1" fill-rule="nonzero"/><path fill="#081e4f" d="M 65.933594 23.800781 L 65.164062 23.800781 L 65.164062 21.316406 L 65.964844 21.316406 C 66.207031 21.316406 66.414062 21.367188 66.585938 21.464844 C 66.753906 21.5625 66.886719 21.707031 66.976562 21.890625 C 67.070312 22.074219 67.113281 22.296875 67.113281 22.554688 C 67.113281 22.816406 67.070312 23.035156 66.976562 23.222656 C 66.882812 23.410156 66.75 23.554688 66.574219 23.652344 C 66.398438 23.753906 66.183594 23.800781 65.933594 23.800781 Z M 65.464844 23.535156 L 65.910156 23.535156 C 66.117188 23.535156 66.285156 23.496094 66.421875 23.417969 C 66.554688 23.335938 66.65625 23.222656 66.722656 23.078125 C 66.789062 22.929688 66.820312 22.757812 66.820312 22.554688 C 66.820312 22.355469 66.789062 22.179688 66.722656 22.035156 C 66.660156 21.890625 66.5625 21.777344 66.429688 21.699219 C 66.300781 21.621094 66.136719 21.585938 65.945312 21.585938 L 65.464844 21.585938 Z M 65.464844 23.535156 " fill-opacity="1" fill-rule="nonzero"/><path fill="#081e4f" d="M 67.605469 23.800781 L 67.289062 23.800781 L 68.199219 21.316406 L 68.511719 21.316406 L 69.421875 23.800781 L 69.109375 23.800781 L 68.367188 21.710938 L 68.347656 21.710938 Z M 67.722656 22.832031 L 68.992188 22.832031 L 68.992188 23.097656 L 67.722656 23.097656 Z M 67.722656 22.832031 " fill-opacity="1" fill-rule="nonzero"/><path fill="#081e4f" d="M 71.78125 21.316406 L 71.78125 23.804688 L 71.488281 23.804688 L 70.136719 21.851562 L 70.109375 21.851562 L 70.109375 23.804688 L 69.808594 23.804688 L 69.808594 21.316406 L 70.101562 21.316406 L 71.460938 23.273438 L 71.484375 23.273438 L 71.484375 21.316406 Z M 71.78125 21.316406 " fill-opacity="1" fill-rule="nonzero"/><path fill="#081e4f" d="M 73.339844 23.800781 L 73.339844 21.316406 L 74.210938 21.316406 C 74.382812 21.316406 74.523438 21.34375 74.636719 21.40625 C 74.75 21.464844 74.832031 21.542969 74.886719 21.644531 C 74.941406 21.746094 74.96875 21.855469 74.96875 21.976562 C 74.96875 22.082031 74.949219 22.171875 74.914062 22.242188 C 74.875 22.3125 74.828125 22.367188 74.765625 22.40625 C 74.707031 22.445312 74.636719 22.476562 74.566406 22.496094 L 74.566406 22.519531 C 74.644531 22.527344 74.71875 22.550781 74.796875 22.601562 C 74.875 22.648438 74.9375 22.71875 74.988281 22.808594 C 75.042969 22.898438 75.066406 23.011719 75.066406 23.140625 C 75.066406 23.265625 75.039062 23.378906 74.980469 23.476562 C 74.925781 23.578125 74.835938 23.65625 74.714844 23.714844 C 74.59375 23.773438 74.433594 23.800781 74.238281 23.800781 Z M 73.640625 22.410156 L 74.199219 22.410156 C 74.289062 22.410156 74.371094 22.390625 74.445312 22.355469 C 74.519531 22.320312 74.578125 22.269531 74.621094 22.203125 C 74.664062 22.140625 74.683594 22.0625 74.683594 21.976562 C 74.683594 21.867188 74.648438 21.773438 74.570312 21.699219 C 74.496094 21.621094 74.375 21.582031 74.210938 21.582031 L 73.644531 21.582031 L 73.644531 22.410156 Z M 73.640625 23.535156 L 74.238281 23.535156 C 74.433594 23.535156 74.574219 23.496094 74.65625 23.421875 C 74.738281 23.34375 74.78125 23.25 74.78125 23.140625 C 74.78125 23.058594 74.761719 22.980469 74.71875 22.90625 C 74.675781 22.835938 74.613281 22.777344 74.535156 22.734375 C 74.457031 22.691406 74.359375 22.671875 74.253906 22.671875 L 73.640625 22.671875 Z M 73.640625 23.535156 " fill-opacity="1" fill-rule="nonzero"/><path fill="#081e4f" d="M 77.65625 22.558594 C 77.65625 22.820312 77.609375 23.046875 77.515625 23.238281 C 77.421875 23.429688 77.289062 23.578125 77.125 23.679688 C 76.960938 23.785156 76.773438 23.835938 76.5625 23.835938 C 76.351562 23.835938 76.164062 23.785156 75.996094 23.679688 C 75.832031 23.578125 75.703125 23.429688 75.609375 23.238281 C 75.515625 23.046875 75.464844 22.820312 75.464844 22.558594 C 75.464844 22.296875 75.515625 22.070312 75.609375 21.878906 C 75.703125 21.6875 75.832031 21.539062 75.996094 21.4375 C 76.164062 21.332031 76.351562 21.28125 76.5625 21.28125 C 76.773438 21.28125 76.960938 21.332031 77.125 21.4375 C 77.292969 21.539062 77.421875 21.6875 77.515625 21.878906 C 77.609375 22.070312 77.65625 22.296875 77.65625 22.558594 Z M 77.367188 22.558594 C 77.367188 22.34375 77.332031 22.160156 77.257812 22.015625 C 77.1875 21.867188 77.089844 21.753906 76.96875 21.675781 C 76.847656 21.601562 76.710938 21.5625 76.5625 21.5625 C 76.410156 21.5625 76.273438 21.601562 76.152344 21.675781 C 76.03125 21.753906 75.933594 21.867188 75.863281 22.015625 C 75.792969 22.160156 75.757812 22.34375 75.757812 22.558594 C 75.757812 22.773438 75.792969 22.957031 75.863281 23.105469 C 75.9375 23.253906 76.03125 23.363281 76.152344 23.441406 C 76.273438 23.515625 76.410156 23.554688 76.5625 23.554688 C 76.710938 23.554688 76.847656 23.519531 76.96875 23.441406 C 77.089844 23.363281 77.1875 23.253906 77.257812 23.105469 C 77.332031 22.957031 77.367188 22.773438 77.367188 22.558594 Z M 77.367188 22.558594 " fill-opacity="1" fill-rule="nonzero"/><path fill="#081e4f" d="M 79.519531 21.9375 C 79.503906 21.816406 79.445312 21.71875 79.34375 21.652344 C 79.238281 21.582031 79.113281 21.546875 78.960938 21.546875 C 78.851562 21.546875 78.757812 21.566406 78.675781 21.601562 C 78.59375 21.636719 78.527344 21.6875 78.484375 21.75 C 78.4375 21.8125 78.414062 21.882812 78.414062 21.960938 C 78.414062 22.027344 78.429688 22.085938 78.460938 22.132812 C 78.492188 22.179688 78.535156 22.21875 78.585938 22.25 C 78.636719 22.28125 78.6875 22.308594 78.742188 22.324219 C 78.796875 22.347656 78.847656 22.363281 78.894531 22.375 L 79.148438 22.441406 C 79.210938 22.457031 79.28125 22.480469 79.363281 22.511719 C 79.441406 22.542969 79.519531 22.582031 79.59375 22.632812 C 79.667969 22.683594 79.726562 22.75 79.773438 22.832031 C 79.820312 22.910156 79.847656 23.007812 79.847656 23.125 C 79.847656 23.261719 79.808594 23.382812 79.742188 23.488281 C 79.671875 23.597656 79.570312 23.683594 79.433594 23.746094 C 79.300781 23.8125 79.136719 23.84375 78.949219 23.84375 C 78.769531 23.84375 78.617188 23.816406 78.488281 23.757812 C 78.355469 23.699219 78.253906 23.621094 78.179688 23.519531 C 78.105469 23.414062 78.066406 23.296875 78.054688 23.160156 L 78.367188 23.160156 C 78.375 23.253906 78.40625 23.332031 78.460938 23.390625 C 78.515625 23.453125 78.585938 23.5 78.671875 23.527344 C 78.757812 23.558594 78.851562 23.574219 78.949219 23.574219 C 79.0625 23.574219 79.164062 23.554688 79.257812 23.515625 C 79.347656 23.476562 79.421875 23.425781 79.472656 23.359375 C 79.527344 23.289062 79.554688 23.210938 79.554688 23.121094 C 79.554688 23.039062 79.53125 22.96875 79.484375 22.917969 C 79.441406 22.867188 79.378906 22.824219 79.304688 22.792969 C 79.226562 22.761719 79.148438 22.730469 79.058594 22.707031 L 78.753906 22.621094 C 78.558594 22.5625 78.40625 22.484375 78.292969 22.378906 C 78.179688 22.277344 78.125 22.140625 78.125 21.972656 C 78.125 21.835938 78.160156 21.714844 78.238281 21.609375 C 78.3125 21.503906 78.414062 21.425781 78.542969 21.367188 C 78.671875 21.308594 78.8125 21.277344 78.972656 21.277344 C 79.132812 21.277344 79.273438 21.308594 79.398438 21.363281 C 79.523438 21.421875 79.625 21.5 79.695312 21.597656 C 79.769531 21.699219 79.808594 21.808594 79.8125 21.933594 L 79.519531 21.933594 Z M 79.519531 21.9375 " fill-opacity="1" fill-rule="nonzero"/><path fill="#081e4f" d="M 80.335938 23.800781 L 80.335938 21.316406 L 80.636719 21.316406 L 80.636719 22.421875 L 81.960938 22.421875 L 81.960938 21.316406 L 82.261719 21.316406 L 82.261719 23.800781 L 81.960938 23.800781 L 81.960938 22.691406 L 80.636719 22.691406 L 80.636719 23.800781 Z M 80.335938 23.800781 " fill-opacity="1" fill-rule="nonzero"/><path fill="#081e4f" d="M 82.863281 23.800781 L 82.863281 21.316406 L 83.164062 21.316406 L 83.164062 23.535156 L 84.320312 23.535156 L 84.320312 23.800781 Z M 82.863281 23.800781 " fill-opacity="1" fill-rule="nonzero"/><path fill="#081e4f" d="M 85.042969 23.800781 L 84.726562 23.800781 L 85.636719 21.316406 L 85.949219 21.316406 L 86.859375 23.800781 L 86.546875 23.800781 L 85.804688 21.710938 L 85.785156 21.710938 Z M 85.160156 22.832031 L 86.429688 22.832031 L 86.429688 23.097656 L 85.160156 23.097656 Z M 85.160156 22.832031 " fill-opacity="1" fill-rule="nonzero"/><path fill="#081e4f" d="M 89.21875 21.316406 L 89.21875 23.804688 L 88.925781 23.804688 L 87.574219 21.851562 L 87.546875 21.851562 L 87.546875 23.804688 L 87.246094 23.804688 L 87.246094 21.316406 L 87.539062 21.316406 L 88.898438 23.273438 L 88.921875 23.273438 L 88.921875 21.316406 Z M 89.21875 21.316406 " fill-opacity="1" fill-rule="nonzero"/><path fill="#081e4f" d="M 89.921875 23.800781 L 89.605469 23.800781 L 90.515625 21.316406 L 90.828125 21.316406 L 91.738281 23.800781 L 91.425781 23.800781 L 90.683594 21.710938 L 90.664062 21.710938 Z M 90.035156 22.832031 L 91.308594 22.832031 L 91.308594 23.097656 L 90.035156 23.097656 Z M 90.035156 22.832031 " fill-opacity="1" fill-rule="nonzero"/><path fill="#081e4f" d="M 92.890625 23.800781 L 92.125 23.800781 L 92.125 21.316406 L 92.925781 21.316406 C 93.167969 21.316406 93.375 21.367188 93.546875 21.464844 C 93.714844 21.5625 93.847656 21.707031 93.9375 21.890625 C 94.03125 22.074219 94.074219 22.296875 94.074219 22.554688 C 94.074219 22.816406 94.03125 23.035156 93.9375 23.222656 C 93.84375 23.410156 93.710938 23.554688 93.535156 23.652344 C 93.359375 23.753906 93.144531 23.800781 92.890625 23.800781 Z M 92.425781 23.535156 L 92.875 23.535156 C 93.078125 23.535156 93.25 23.496094 93.382812 23.417969 C 93.519531 23.335938 93.617188 23.222656 93.683594 23.078125 C 93.75 22.929688 93.785156 22.757812 93.785156 22.554688 C 93.785156 22.355469 93.75 22.179688 93.6875 22.035156 C 93.621094 21.890625 93.523438 21.777344 93.390625 21.699219 C 93.261719 21.621094 93.101562 21.585938 92.90625 21.585938 L 92.425781 21.585938 Z M 92.425781 23.535156 " fill-opacity="1" fill-rule="nonzero"/><path fill="#081e4f" d="M 94.582031 21.316406 L 94.882812 21.316406 L 94.882812 23.804688 L 94.582031 23.804688 Z M 94.582031 21.316406 " fill-opacity="1" fill-rule="nonzero"/></svg>